<?xml version="1.0" encoding="utf-8"?>
<!-- Generator: Adobe Illustrator 21.1.0, SVG Export Plug-In . SVG Version: 6.00 Build 0)  -->
<svg version="1.1" id="Layer_1" xmlns="http://www.w3.org/2000/svg" xmlns:xlink="http://www.w3.org/1999/xlink" x="0px" y="0px"
	 viewBox="0 0 2009.6 1973.4" style="enable-background:new 0 0 2009.6 1973.4;" xml:space="preserve">
<style type="text/css">
	.st0{enable-background:new    ;}
	.st1{fill:#E6E7E8;}
</style>
<g id="Layer_1_1_">
	<g class="st0">
		<path class="st1" d="M451.2,236.3H55.9V133.5h166v-30.8h-166V0h1953.7v102.8H309.8v30.8h141.4V236.3z"/>
		<path class="st1" d="M254.4,362.8v-92.5h21.7c25.1,0,44.4,2.9,58,8.7c13.6,5.8,25.6,17.4,36,34.8c10.4,17.4,15.6,40,15.6,67.9
			c0,33.4-5.9,58.5-17.7,75.4c-11.8,16.9-26.3,27.1-43.5,30.5c-17.2,3.4-52.5,5.1-106.1,5.1H55.9v-95.9h28.9
			c-11.6-6-20.3-13.8-26-23.3c-5.8-9.5-8.7-20.9-8.7-34.1c0-17.3,4.8-33.1,14.5-47.5s30.9-21.6,63.6-21.6h26.6
			c24.2,0,40.8,3.8,49.6,11.5c8.8,7.6,19,26.6,30.8,56.9c12.7,32.4,21.2,49.7,25.6,52c4.4,2.3,13.3,3.4,26.9,3.4
			c16.9,0,28-1.3,33.1-3.8c5.1-2.5,7.7-6.7,7.7-12.6c0-6.7-2.2-10.8-6.5-12.5c-4.3-1.6-15.5-2.4-33.6-2.4H254.4z M210,394
			c-11.6-15.8-21.2-24.9-29.1-27.5c-7.8-2.5-19-3.8-33.7-3.8c-16.8,0-27.6,1.1-32.5,3.3s-7.3,6.5-7.3,13.1c0,6.2,1.9,10.2,5.7,12.1
			c3.8,1.9,13.9,2.8,30.2,2.8H210z"/>
		<path class="st1" d="M379.9,627l-29.8-1.7c11.9,7.2,20.8,15.9,26.8,26.2c6,10.3,8.9,22.3,8.9,35.8c0,16.9-4,30.8-12,41.5
			c-8,10.7-18,17.7-30.2,20.8c-12.1,3.1-32.3,4.6-60.7,4.6H55.9v-98.6h224.4c22.3,0,35.9-0.7,40.8-2.2s7.3-5.5,7.3-12.2
			c0-7-2.8-11.4-8.4-13.2c-5.6-1.8-20.6-2.7-45-2.7h-219v-98.6h324V627z"/>
		<path class="st1" d="M379.9,1012.2H130.4c-33.7,0-55.5-0.8-65.3-2.3c-9.8-1.5-20.3-7-31.2-16.5c-11-9.4-19.4-22.6-25.1-39.4
			c-5.8-16.8-8.7-38-8.7-63.6c0-31.4,5.3-56.6,16-75.7c10.7-19,31.6-28.9,62.9-29.5v95.7c-14.3,0-21.5,5.2-21.5,15.6
			c0,7.5,2.2,12.5,6.6,14.9c4.4,2.4,13.6,3.7,27.6,3.7H116c-7.7-8.5-13.5-17.4-17.4-26.7c-3.9-9.4-5.9-19.2-5.9-29.4
			c0-17.7,3.6-32.3,10.7-43.8c7.2-11.5,16.6-19.3,28.2-23.6c11.6-4.2,28.2-6.3,49.7-6.3h117.7c30.8,0,52.9,5.5,66.4,16.6
			c13.5,11.1,20.3,27.9,20.3,50.5c0,12.4-2.5,23.6-7.6,33.8c-5.1,10.2-12.6,19.2-22.8,27.2l24.5,7.1V1012.2z M293.9,913.3
			c14.8,0,24.2-0.9,28.3-2.6c4.1-1.7,6.1-5.5,6.1-11.4c0-5.7-2.3-9.7-7-12.1c-4.6-2.4-13.8-3.5-27.5-3.5H185.1
			c-14.5,0-23.9,0.9-28.2,2.7c-4.3,1.8-6.5,5.5-6.5,11.2c0,6.5,2.6,10.7,7.8,12.7c5.2,2,17,2.9,35.4,2.9H293.9z"/>
		<path class="st1" d="M451.2,1455.6H55.9v-89.8l266.8-0.1l-266.8-35.8v-63.7l260.7-37.7l-260.7-0.1v-89.8h395.3v133
			c-23.8,3.9-51.8,8-84,12.2l-100.5,14.6l184.6,23.6V1455.6z"/>
		<path class="st1" d="M254.4,1582v-92.5h21.7c25.1,0,44.4,2.9,58,8.7c13.6,5.8,25.6,17.4,36,34.8c10.4,17.4,15.6,40,15.6,67.9
			c0,33.4-5.9,58.5-17.7,75.4c-11.8,16.9-26.3,27.1-43.5,30.5c-17.2,3.4-52.5,5.1-106.1,5.1H55.9V1616h28.9
			c-11.6-6-20.3-13.8-26-23.3c-5.8-9.5-8.7-20.9-8.7-34.1c0-17.3,4.8-33.1,14.5-47.5s30.9-21.6,63.6-21.6h26.6
			c24.2,0,40.8,3.8,49.6,11.5c8.8,7.6,19,26.6,30.8,56.9c12.7,32.4,21.2,49.7,25.6,52c4.4,2.3,13.3,3.4,26.9,3.4
			c16.9,0,28-1.3,33.1-3.8c5.1-2.5,7.7-6.7,7.7-12.6c0-6.7-2.2-10.8-6.5-12.5c-4.3-1.6-15.5-2.4-33.6-2.4H254.4z M210,1613.3
			c-11.6-15.8-21.2-24.9-29.1-27.5c-7.8-2.5-19-3.8-33.7-3.8c-16.8,0-27.6,1.1-32.5,3.3s-7.3,6.5-7.3,13.1c0,6.2,1.9,10.2,5.7,12.1
			c3.8,1.9,13.9,2.8,30.2,2.8H210z"/>
		<path class="st1" d="M379.9,1846.2l-29.8-1.7c11.9,7.2,20.8,15.9,26.8,26.2c6,10.3,8.9,22.3,8.9,35.8c0,16.9-4,30.8-12,41.5
			c-8,10.7-18,17.7-30.2,20.8c-12.1,3.1-32.3,4.6-60.7,4.6H55.9v-98.6h224.4c22.3,0,35.9-0.7,40.8-2.2s7.3-5.5,7.3-12.2
			c0-7-2.8-11.4-8.4-13.2c-5.6-1.8-20.6-2.7-45-2.7h-219v-98.6h324V1846.2z"/>
	</g>
</g>
</svg>
